<?xml version="1.0" standalone="no"?>
<!DOCTYPE svg PUBLIC "-//W3C//DTD SVG 20010904//EN"
 "http://www.w3.org/TR/2001/REC-SVG-20010904/DTD/svg10.dtd">
<svg version="1.0" xmlns="http://www.w3.org/2000/svg"
 width="150.000000pt" height="135.000000pt" viewBox="0 0 150.000000 135.000000"
 preserveAspectRatio="xMidYMid meet">

<g transform="translate(0.000000,144.000000) scale(0.100000,-0.100000)"
fill="#000000" stroke="none">
<path d="M807 1044 c-4 -158 -9 -289 -11 -291 -1 -2 -40 -6 -85 -10 -57 -4
-85 -3 -90 5 -5 8 -72 10 -241 5 l-234 -6 109 -105 c61 -58 210 -201 332 -319
l222 -215 267 234 c147 128 305 264 350 301 46 38 82 73 79 78 -3 4 -151 135
-328 290 -177 155 -331 291 -343 301 l-21 18 -6 -286z m326 -193 c86 -75 105
-96 93 -103 -10 -6 -16 -23 -16 -48 0 -38 -4 -43 -113 -132 -61 -51 -120 -99
-130 -107 -16 -13 -17 -9 -17 58 l0 71 64 0 c83 0 96 12 92 86 -2 35 -8 59
-17 65 -8 5 -41 9 -74 9 l-60 0 3 126 3 125 32 -28 c18 -15 81 -70 140 -122z
m182 -91 c-3 -5 -13 -10 -21 -10 -8 0 -12 5 -9 10 3 6 13 10 21 10 8 0 12 -4
9 -10z m-705 -30 c0 -15 -7 -20 -25 -20 -23 0 -25 -3 -25 -50 0 -43 -3 -50
-20 -50 -17 0 -20 7 -20 50 0 43 -3 50 -19 50 -11 0 -23 5 -26 10 -13 21 8 30
71 30 57 0 64 -2 64 -20z m218 -59 c12 -35 20 -66 17 -69 -2 -3 -24 3 -47 14
-31 14 -43 15 -46 6 -2 -6 -14 -12 -28 -12 l-24 0 19 48 c10 26 21 55 24 65 5
13 15 17 34 15 24 -3 31 -11 51 -67z m258 55 c15 -12 17 -18 8 -33 -8 -12 -8
-25 -1 -40 16 -36 -6 -53 -69 -53 l-54 0 0 70 0 70 48 0 c27 0 57 -6 68 -14z
m184 -46 c0 -42 3 -50 19 -50 22 0 31 19 31 66 0 27 4 34 20 34 17 0 20 -7 20
-46 0 -56 -12 -80 -44 -88 -27 -7 -76 8 -88 27 -4 7 -8 33 -8 60 0 44 2 47 25
47 23 0 25 -3 25 -50z m-470 -215 c0 -69 -3 -125 -8 -125 -4 0 -63 56 -132
125 l-125 125 133 0 132 0 0 -125z"/>
<path d="M767 680 c-7 -27 -1 -39 12 -24 5 5 5 18 2 28 -7 18 -8 18 -14 -4z"/>
<path d="M1013 698 c2 -7 10 -13 17 -13 7 0 15 6 18 13 2 7 -5 12 -18 12 -13
0 -20 -5 -17 -12z"/>
<path d="M1010 645 c0 -11 7 -15 23 -13 12 2 22 8 22 13 0 6 -10 11 -22 13
-16 2 -23 -2 -23 -13z"/>
</g>
</svg>
